Coordinates
version=1
nRows=16
nColumns=40
inDegrees=yes

Units are S.I. units (second, meters, Newtons, ...)
Angles are in degrees.

endheader
time	pelvis_tilt	pelvis_list	pelvis_rotation	pelvis_tx	pelvis_ty	pelvis_tz	hip_flexion_r	hip_adduction_r	hip_rotation_r	knee_angle_r	knee_angle_r_beta	ankle_angle_r	subtalar_angle_r	mtp_angle_r	hip_flexion_l	hip_adduction_l	hip_rotation_l	knee_angle_l	knee_angle_l_beta	ankle_angle_l	subtalar_angle_l	mtp_angle_l	lumbar_extension	lumbar_bending	lumbar_rotation	arm_flex_r	arm_add_r	arm_rot_r	elbow_flex_r	pro_sup_r	wrist_flex_r	wrist_dev_r	arm_flex_l	arm_add_l	arm_rot_l	elbow_flex_l	pro_sup_l	wrist_flex_l	wrist_dev_l
     21.10000000	     -5.67124430	     -3.41817476	      2.66081838	      1.02402513	      0.92043524	      0.40748974	      6.05493286	     -6.93124583	     -7.47683592	     34.97137003	     34.97137003	      7.85812539	     -9.03843384	    -19.89709873	     20.32089332	     -0.50831294	      1.54417719	     29.54513130	     29.54513130	     17.31700701	    -15.83934081	      8.55385894	     -8.02031746	      5.07930403	      5.36639917	     42.66177621	    -14.03714322	    -11.58410511	     43.49906302	     44.84388902	      0.00000000	      0.00000000	     12.49069393	    -11.63694443	     23.49793077	     31.80761467	     44.44896944	      0.00000000	      0.00000000
     21.12407143	     -5.55757208	     -3.46707825	      2.16913643	      1.02223730	      0.91966047	      0.40458563	      8.31771093	     -7.22236946	     -6.47105002	     39.31964584	     39.31964584	      6.37399491	    -11.30852091	    -19.94142526	     20.08091507	     -0.45350986	      1.23432885	     29.84460694	     29.84460694	     17.67693259	    -16.07680405	      8.30884185	     -8.10171573	      5.37691376	      5.15484815	     39.37726256	    -13.90026388	    -11.69448012	     42.02193353	     44.90193246	      0.00000000	      0.00000000	     14.82590566	    -11.86018777	     22.96076192	     33.38250131	     44.56324784	      0.00000000	      0.00000000
     21.14814286	     -5.40216522	     -3.48719026	      1.62862786	      1.02040843	      0.91890805	      0.40187280	     10.53273826	     -7.39530721	     -5.36664335	     43.52756231	     43.52756231	      4.83943670	    -13.55543920	    -19.29750147	     19.77709344	     -0.40719696	      0.80954123	     30.14398894	     30.14398894	     18.09940358	    -16.22222903	      8.10343501	     -8.25359692	      5.62777023	      5.02225328	     35.97666921	    -13.79691749	    -11.91005955	     40.33056177	     44.97119994	      0.00000000	      0.00000000	     17.28997741	    -12.17846183	     22.26940178	     35.12990353	     44.69698673	      0.00000000	      0.00000000
     21.17221429	     -5.16676881	     -3.59955686	      1.08643482	      1.01862272	      0.91834944	      0.39949395	     12.63458406	     -7.29286548	     -4.26466364	     47.59291008	     47.59291008	      4.50158450	    -14.76119699	    -14.93476624	     19.40249405	     -0.51059928	      0.33944139	     30.49940145	     30.49940145	     18.63591324	    -16.16005355	      7.94681044	     -8.55690738	      5.93564140	      4.67366008	     32.82396257	    -13.26111672	    -13.36295892	     37.98568875	     45.19431579	      0.00000000	      0.00000000	     19.22280399	    -12.73753093	     19.87382869	     38.40622431	     45.07879754	      0.00000000	      0.00000000
     21.19628571	     -4.97418607	     -3.66376514	      0.50574849	      1.01686645	      0.91797479	      0.39746709	     14.68551414	     -7.18158047	     -3.33095916	     51.18776881	     51.18776881	      4.51799430	    -15.44344602	    -10.15958741	     18.97102631	     -0.57789799	     -0.16615017	     30.66882621	     30.66882621	     19.05456175	    -16.16039675	      7.78593486	     -8.77250233	      6.16073779	      4.45532664	     29.56759962	    -12.96210076	    -14.25098992	     35.41213106	     45.39775042	      0.00000000	      0.00000000	     21.64557176	    -13.00205618	     17.76191583	     40.08355748	     45.40813336	      0.00000000	      0.00000000
     21.22035714	     -4.82780375	     -3.68290871	     -0.11251691	      1.01517914	      0.91791654	      0.39589660	     16.50819297	     -7.08747334	     -2.61341234	     53.80780480	     53.80780480	      3.63229541	    -16.56919514	     -8.92738296	     18.46419647	     -0.62417357	     -0.72134331	     30.60398997	     30.60398997	     19.36214416	    -16.16582336	      7.67957416	     -8.96550452	      6.29407304	      4.36132009	     25.95721883	    -12.86719931	    -14.36717431	     33.57240527	     45.46421111	      0.00000000	      0.00000000	     24.23062894	    -13.54581304	     16.97529351	     41.53305143	     45.53701706	      0.00000000	      0.00000000
     21.24442857	     -4.59557099	     -3.91673440	     -0.75016239	      1.01367231	      0.91844570	      0.39509859	     18.20659765	     -6.53748673	     -1.88971105	     56.04376512	     56.04376512	      5.11398189	    -16.46883033	     -1.85954313	     17.79157758	     -0.98934172	     -1.35401581	     30.43345574	     30.43345574	     19.61121959	    -15.92461763	      7.29390883	     -9.25929295	      6.61204069	      4.14017497	     22.60756136	    -12.58773038	    -15.03749326	     31.39228986	     45.62857895	      0.00000000	      0.00000000	     26.25376374	    -14.01772023	     14.29129851	     43.83385095	     45.87645462	      0.00000000	      0.00000000
     21.26850000	     -4.48760582	     -4.04481467	     -1.42967246	      1.01220185	      0.91928021	      0.39472678	     19.76325194	     -6.21304312	     -1.50758915	     57.15711248	     57.15711248	      5.73476688	    -16.53445019	      0.84949235	     17.10690719	     -1.23837007	     -1.99604563	     29.98214106	     29.98214106	     19.68737624	    -15.79703718	      7.06896940	     -9.40664399	      6.78449197	      3.88624608	     19.20405382	    -12.34793639	    -15.27719890	     29.38995452	     45.77465292	      0.00000000	      0.00000000	     28.29606153	    -14.54389035	     11.93487501	     45.54725163	     46.15596553	      0.00000000	      0.00000000
     21.29257143	     -4.41677052	     -4.18827564	     -2.15945859	      1.01082015	      0.92059457	      0.39502618	     21.09294719	     -5.81290389	     -1.24652929	     57.16870962	     57.16870962	      5.89721943	    -16.86376189	      0.94690989	     16.30605928	     -1.53607130	     -2.68868976	     29.25945722	     29.25945722	     19.77231825	    -15.59402052	      7.13494630	     -9.50272119	      6.91481122	      3.75362979	     15.65224102	    -12.16515419	    -15.27126947	     27.83586774	     45.82021793	      0.00000000	      0.00000000	     30.43948358	    -15.38913031	     11.15622802	     46.85454328	     46.26300768	      0.00000000	      0.00000000
     21.31664286	     -4.34966854	     -4.44068331	     -2.94119091	      1.00958648	      0.92235359	      0.39590284	     22.17403252	     -5.27425850	     -1.15322774	     56.16632282	     56.16632282	      6.43577055	    -16.82296185	      0.83812619	     15.40884606	     -1.99454910	     -3.47212322	     28.39340650	     28.39340650	     19.74935178	    -15.30472320	      7.16397408	     -9.60450031	      7.15066293	      3.86585532	     12.06171974	    -12.12784148	    -15.21267872	     26.37673347	     45.86098967	      0.00000000	      0.00000000	     32.40809484	    -16.08025973	     10.03895302	     48.51962957	     46.40147924	      0.00000000	      0.00000000
     21.34071429	     -4.42533138	     -4.71360053	     -3.76588054	      1.00832393	      0.92423533	      0.39732820	     23.11504776	     -4.71630953	     -1.24464645	     54.04990578	     54.04990578	      6.48915374	    -16.69969963	     -1.48652730	     14.55023296	     -2.49216130	     -4.27526110	     27.30345223	     27.30345223	     19.38902435	    -15.06242636	      6.54028326	     -9.65570644	      7.41418727	      3.41988190	      8.56037984	    -11.99203925	    -14.15234376	     25.89016392	     45.85098163	      0.00000000	      0.00000000	     33.34400037	    -16.74884186	      6.05606232	     51.31535902	     46.78186561	      0.00000000	      0.00000000
     21.36478571	     -4.47274509	     -5.00428037	     -4.61331187	      1.00714763	      0.92640903	      0.39932031	     23.77222985	     -4.07447346	     -1.39535437	     51.07573819	     51.07573819	      7.27724969	    -15.85438909	     -2.13225686	     13.56084827	     -3.00917261	     -5.08475232	     26.08715405	     26.08715405	     19.25212392	    -14.74956843	      6.76001991	     -9.64546782	      7.62836035	      3.46094618	      5.27463909	    -11.89818186	    -13.97145310	     24.65610473	     45.87339607	      0.00000000	      0.00000000	     35.07439971	    -17.63983923	      5.25311572	     52.63627559	     46.87849172	      0.00000000	      0.00000000
     21.38885714	     -4.64125648	     -5.26526818	     -5.49576130	      1.00597599	      0.92840787	      0.40167602	     24.04503816	     -3.49974466	     -1.77487598	     46.72594081	     46.72594081	      6.13169782	    -15.40371242	     -7.93409262	     12.62905127	     -3.50382633	     -5.96326424	     24.73948580	     24.73948580	     18.78520938	    -14.49315758	      6.23392879	     -9.58110820	      7.81528162	      3.30292022	      1.70939281	    -12.02019067	    -11.49825868	     24.93712157	     45.75032400	      0.00000000	      0.00000000	     36.03707351	    -18.25367727	      2.31056385	     55.27919349	     47.13079285	      0.00000000	      0.00000000
     21.41292857	     -4.79315321	     -5.46067540	     -6.37788754	      1.00492235	      0.93022872	      0.40450179	     24.15174298	     -2.94354275	     -2.23985674	     42.09821650	     42.09821650	      6.53596748	    -13.20628637	     -8.77593841	     11.66128218	     -3.93473949	     -6.87607435	     23.41215516	     23.41215516	     18.59528503	    -14.09616008	      6.27505990	     -9.48171480	      7.92249051	      3.47494893	     -1.58711704	    -11.96697885	    -10.99407924	     24.43453862	     45.73295197	      0.00000000	      0.00000000	     37.35621684	    -19.02331423	      1.22457439	     57.07254061	     47.24415175	      0.00000000	      0.00000000
     21.43700000	     -5.11288325	     -5.73884040	     -7.18418887	      1.00387833	      0.93160269	      0.40775543	     24.03303259	     -2.13361308	     -2.68315978	     36.84038187	     36.84038187	      6.66877205	    -10.80143007	     -8.47355893	     10.93140212	     -4.45700049	     -7.60132436	     22.21002162	     22.21002162	     18.43692536	    -13.83106460	      6.43518439	     -9.13457598	      8.17886469	      3.30484105	     -4.28791115	    -11.73979377	    -10.88366077	     23.75323737	     45.73522264	      0.00000000	      0.00000000	     38.60484764	    -20.07155580	      0.54113202	     58.03689243	     47.31863253	      0.00000000	      0.00000000
     21.46107143	     -5.00466315	     -5.72593937	     -8.00965991	      1.00326406	      0.93304972	      0.41110584	     23.22376630	     -1.87284354	     -3.66195642	     31.40114488	     31.40114488	      6.55044812	     -6.44435310	     -8.24047761	      9.60155494	     -4.61381397	     -8.61975723	     20.78637118	     20.78637118	     18.16498567	    -13.24068510	      6.10155657	     -9.39634814	      8.00600502	      3.61564866	     -7.29824604	    -11.58713454	    -10.49301673	     23.93937002	     45.68314956	      0.00000000	      0.00000000	     39.77180524	    -20.50116486	     -0.87694004	     60.27437661	     47.46410839	      0.00000000	      0.00000000
